<?xml version="1.0" encoding="UTF-8"?>
<!DOCTYPE svg PUBLIC "-//W3C//DTD SVG 1.1//EN" "http://www.w3.org/Graphics/SVG/1.1/DTD/svg11.dtd">
<!-- Creator: CorelDRAW X7 -->
<svg xmlns="http://www.w3.org/2000/svg" xml:space="preserve" width="500px" height="261px" version="1.1" style="shape-rendering:geometricPrecision; text-rendering:geometricPrecision; image-rendering:optimizeQuality; fill-rule:evenodd; clip-rule:evenodd"
viewBox="0 0 177639 92739"
 xmlns:xlink="http://www.w3.org/1999/xlink">
 <defs>
  <style type="text/css">
   <![CDATA[
    .fil1 {fill:#3E383D;fill-rule:nonzero}
    .fil2 {fill:#4B4349;fill-rule:nonzero}
    .fil0 {fill:#7DB856;fill-rule:nonzero}
   ]]>
  </style>
 </defs>
 <g id="Vrstva_x0020_1">
  <metadata id="CorelCorpID_0Corel-Layer"/>
  <path class="fil0" d="M172351 34907c2510,-4212 2648,-9274 279,-13975 -2608,-5172 -7620,-8742 -12668,-9217 -3004,-7569 -10213,-11899 -19599,-11709 -9463,-183 -16700,4140 -19704,11709 -2921,274 -5825,1590 -8263,3647l-23 -19c-1786,1502 -3324,3400 -4428,5589 -1353,2684 -1888,5486 -1631,8180 434,4731 5268,3925 5032,146 -387,-2327 272,-4406 928,-5793 68,-93 130,-186 178,-283 2033,-4032 6164,-6776 9819,-6507 1174,91 2246,-661 2576,-1790 2683,-9160 11662,-9957 15516,-9883 3736,-85 12727,722 15410,9883 330,1129 1396,1875 2575,1790 3650,-266 7788,2476 9819,6507 1098,2177 2412,6448 -1123,10577 -473,551 -681,1281 -573,1999 109,718 525,1353 1140,1740 301,190 7355,4758 4263,14034 -3347,10043 -16488,7226 -17063,7098 -1345,-305 -2681,536 -2989,1879 -308,1345 533,2685 1878,2993 1535,350 3464,595 5560,595 6447,0 14465,-2316 17355,-10985 2856,-8568 -813,-14937 -4264,-18205z"/>
  <path class="fil1" d="M134802 69379l0 -8868 -10795 -17923c-1409,-2906 -195,-4914 2995,-4914l2143 0c2343,0 3887,1015 4797,3211l5811 9325 6995 -14926c911,-2161 2454,-3210 4797,-3210l2214 0c3204,0 4484,2057 3042,4914l-12030 23523 0 8665c0,2690 -1461,4151 -4151,4151l-1666 0c-2691,0 -4152,-1426 -4152,-3948z"/>
  <path class="fil1" d="M13179 25644l1092 -2615c756,-1932 2209,-2385 4390,-2385l857 0c2277,0 3375,1562 1655,4016l-1717 2579c-1257,1766 -2356,2272 -4587,2272 -2030,0 -2743,-1143 -1690,-3867zm-13179 31364l0 -20562c0,-2678 1453,-4132 4132,-4132l1691 0c2679,0 4132,1454 4132,4132l0 20513c0,5688 1532,8043 5369,8043 3871,0 5403,-2355 5403,-7994l0 -20562c0,-2678 1453,-4132 4132,-4132l1759 0c2678,0 4132,1454 4132,4132l0 20629c0,11348 -5101,16650 -15426,16650 -10324,0 -15324,-5220 -15324,-16717z"/>
  <path class="fil1" d="M45242 70049l-10211 -27402c-1023,-2843 300,-4759 3324,-4759l2153 0c2415,0 3952,1126 4610,3458l6503 20334 6503 -20334c658,-2332 2194,-3458 4609,-3458l2154 0c3024,0 4380,1916 3324,4759l-10227 27402c-808,2249 -2345,3323 -4726,3323l-3290 0c-2381,0 -3917,-1074 -4726,-3323z"/>
  <path class="fil1" d="M87908 61115l-4075 -12482 -4046 12482 8121 0zm9250 12257l-1753 0c-2415,0 -3918,-1108 -4626,-3458l-605 -1854 -12638 0 -601 1854c-692,2350 -2210,3458 -4625,3458l-1756 0c-3024,0 -4347,-1916 -3324,-4759l10320 -27402c808,-2264 2344,-3323 4725,-3323l3115 0c2381,0 3918,1059 4726,3323l10334 27402c1057,2843 -284,4759 -3292,4759z"/>
  <path class="fil1" d="M105223 69241l0 -27221c0,-2679 1454,-4132 4132,-4132l1692 0c2677,0 4132,1453 4132,4132l0 22609 7033 0c2678,0 4132,1453 4132,4131l0 481c0,2677 -1454,4131 -4132,4131l-12857 0c-2678,0 -4132,-1454 -4132,-4131z"/>
  <path class="fil2" d="M9862 92610l0 -4604c0,-564 -120,-986 -362,-1268 -240,-282 -615,-423 -1123,-423 -667,0 -1160,191 -1478,574 -319,383 -478,973 -478,1770l0 3951 -1072 0 0 -4604c0,-564 -120,-986 -361,-1268 -241,-282 -618,-423 -1130,-423 -671,0 -1164,201 -1475,603 -313,403 -468,1062 -468,1979l0 3713 -1072 0 0 -7076 872 0 174 968 52 0c202,-344 487,-613 855,-807 368,-193 780,-290 1236,-290 1106,0 1829,400 2170,1201l51 0c211,-371 517,-664 916,-878 401,-216 857,-323 1370,-323 800,0 1399,205 1797,616 399,411 598,1069 598,1973l0 4616 -1072 0z"/>
  <path class="fil2" d="M20204 86302c-568,0 -1021,185 -1359,555 -338,371 -537,883 -597,1537l3699 0c0,-676 -151,-1193 -452,-1553 -301,-360 -731,-539 -1291,-539zm-2137 -3822l742 0c491,318 963,726 1414,1220 560,-559 1035,-966 1428,-1220l768 0 0 162 -427 439c-620,636 -1028,1142 -1226,1516l-1072 0c-99,-176 -259,-400 -478,-671 -220,-271 -603,-699 -1149,-1284l0 -162zm2427 10259c-1046,0 -1871,-319 -2475,-955 -605,-638 -908,-1522 -908,-2654 0,-1141 281,-2047 843,-2718 561,-672 1316,-1007 2263,-1007 887,0 1588,291 2104,875 517,582 775,1352 775,2308l0 677 -4874 0c21,831 231,1461 629,1892 399,430 959,646 1682,646 762,0 1515,-160 2260,-478l0 955c-379,164 -737,281 -1075,352 -338,71 -746,107 -1224,107z"/>
  <path class="fil2" d="M33851 90679c0,658 -245,1167 -736,1524 -490,358 -1179,536 -2066,536 -938,0 -1670,-149 -2195,-446l0 -994c340,172 705,308 1095,407 389,99 765,148 1126,148 560,0 990,-89 1291,-268 302,-178 452,-450 452,-816 0,-276 -119,-511 -358,-707 -239,-196 -705,-428 -1398,-694 -658,-246 -1126,-460 -1404,-643 -277,-183 -484,-390 -620,-623 -135,-232 -203,-510 -203,-833 0,-576 234,-1031 704,-1365 469,-334 1112,-501 1930,-501 762,0 1506,156 2233,465l-381 872c-709,-293 -1353,-439 -1929,-439 -508,0 -892,80 -1150,239 -258,159 -387,379 -387,658 0,190 49,351 145,485 97,133 253,260 469,380 214,121 627,295 1239,524 839,305 1406,613 1701,922 295,311 442,701 442,1169z"/>
  <path class="fil2" d="M42243 91854c189,0 372,-13 548,-42 177,-28 317,-57 420,-87l0 820c-116,56 -287,102 -513,139 -226,36 -430,55 -610,55 -1369,0 -2054,-721 -2054,-2164l0 -4208 -1013 0 0 -517 1013 -445 452 -1511 621 0 0 1640 2053 0 0 833 -2053 0 0 4164c0,426 101,753 303,981 202,228 480,342 833,342z"/>
  <path class="fil2" d="M49705 89065c0,904 181,1592 542,2066 362,474 893,711 1594,711 702,0 1235,-236 1599,-708 363,-471 545,-1161 545,-2069 0,-899 -182,-1583 -545,-2050 -364,-467 -901,-700 -1611,-700 -702,0 -1231,230 -1588,691 -358,460 -536,1147 -536,2059zm5391 0c0,1154 -291,2054 -872,2702 -581,648 -1384,972 -2408,972 -633,0 -1195,-149 -1685,-446 -491,-297 -870,-723 -1136,-1278 -267,-555 -401,-1205 -401,-1950 0,-1154 289,-2052 866,-2695 576,-644 1377,-965 2401,-965 990,0 1777,329 2360,987 583,659 875,1550 875,2673z"/>
  <path class="fil2" d="M70685 92610l-2685 -7076 1149 0 1524 4196c344,981 546,1619 606,1912l52 0c48,-229 197,-702 449,-1418 251,-716 816,-2280 1695,-4690l1149 0 -2686 7076 -1253 0z"/>
  <polygon class="fil2" points="92447,92610 87314,92610 87314,91880 91175,86367 87553,86367 87553,85534 92350,85534 92350,86367 88541,91776 92447,91776 "/>
  <path class="fil2" d="M101169 86302c-569,0 -1022,185 -1360,555 -338,371 -537,883 -597,1537l3699 0c0,-676 -150,-1193 -451,-1553 -302,-360 -732,-539 -1291,-539zm290 6437c-1046,0 -1871,-319 -2476,-955 -605,-638 -907,-1522 -907,-2654 0,-1141 281,-2047 842,-2718 562,-672 1317,-1007 2263,-1007 887,0 1588,291 2105,875 516,582 774,1352 774,2308l0 677 -4874 0c22,831 231,1461 630,1892 398,430 958,646 1682,646 761,0 1514,-160 2259,-478l0 955c-378,164 -737,281 -1075,352 -338,71 -745,107 -1223,107z"/>
  <polygon class="fil2" points="111323,92610 110251,92610 110251,82564 111323,82564 "/>
  <path class="fil2" d="M120658 86302c-568,0 -1021,185 -1360,555 -337,371 -536,883 -596,1537l3698 0c0,-676 -150,-1193 -451,-1553 -302,-360 -732,-539 -1291,-539zm290 6437c-1046,0 -1871,-319 -2476,-955 -605,-638 -907,-1522 -907,-2654 0,-1141 281,-2047 843,-2718 561,-672 1316,-1007 2262,-1007 888,0 1589,291 2105,875 517,582 775,1352 775,2308l0 677 -4874 0c21,831 231,1461 629,1892 398,430 959,646 1682,646 762,0 1515,-160 2260,-478l0 955c-379,164 -738,281 -1076,352 -337,71 -745,107 -1223,107z"/>
  <path class="fil2" d="M134583 92610l0 -4578c0,-576 -132,-1007 -394,-1291 -263,-284 -674,-426 -1233,-426 -740,0 -1283,200 -1627,600 -344,400 -517,1062 -517,1982l0 3713 -1071 0 0 -7076 872 0 173 968 52 0c220,-349 528,-619 924,-810 395,-192 836,-287 1323,-287 852,0 1493,205 1924,616 430,411 646,1069 646,1973l0 4616 -1072 0z"/>
  <path class="fil2" d="M143290 92610l-1072 0 0 -7076 1072 0 0 7076zm-1162 -8994c0,-245 60,-425 181,-539 121,-114 272,-171 452,-171 172,0 320,58 445,175 125,116 188,294 188,535 0,241 -63,421 -188,540 -125,118 -273,177 -445,177 -180,0 -331,-59 -452,-177 -121,-119 -181,-299 -181,-540z"/>
 </g>
</svg>
